<?xml version="1.0" encoding="utf-8"?>

<svg version="1.1" id="图层_1" xmlns="http://www.w3.org/2000/svg" xmlns:xlink="http://www.w3.org/1999/xlink" x="0px" y="0px" viewBox="0 0 720 405.07" style="enable-background:new 0 0 720 405.07;" xml:space="preserve">

<g>
&#x9;<linearGradient id="SVGID_1_" gradientUnits="userSpaceOnUse" x1="349.1262" y1="162.6713" x2="349.1262" y2="203.6014">
&#x9;&#x9;<stop offset="0" style="stop-color:#F15A24"></stop>
&#x9;&#x9;<stop offset="1" style="stop-color:#FBB03B"></stop>
&#x9;</linearGradient>
&#x9;<path class="st0" d="M346.77,180.98v4.92c0,1.3,1.05,2.35,2.35,2.35s2.35-1.05,2.35-2.35v-4.92c0-1.3-1.05-2.35-2.35-2.35&#xA;&#x9;&#x9;S346.77,179.68,346.77,180.98z"></path>
&#x9;
&#x9;&#x9;<linearGradient id="SVGID_00000129904785483059614560000013757734388453848983_" gradientUnits="userSpaceOnUse" x1="338.9186" y1="162.6713" x2="338.9186" y2="203.6014">
&#x9;&#x9;<stop offset="0" style="stop-color:#F15A24"></stop>
&#x9;&#x9;<stop offset="1" style="stop-color:#FBB03B"></stop>
&#x9;</linearGradient>
&#x9;<path style="fill:url(#SVGID_00000129904785483059614560000013757734388453848983_);" d="M336.57,180.98v4.92&#xA;&#x9;&#x9;c0,1.3,1.05,2.35,2.35,2.35s2.35-1.05,2.35-2.35v-4.92c0-1.3-1.05-2.35-2.35-2.35S336.57,179.68,336.57,180.98z"></path>
&#x9;
&#x9;&#x9;<linearGradient id="SVGID_00000068662086445262588880000009151403435024432809_" gradientUnits="userSpaceOnUse" x1="336.565" y1="162.6713" x2="336.565" y2="203.6014">
&#x9;&#x9;<stop offset="0" style="stop-color:#F15A24"></stop>
&#x9;&#x9;<stop offset="1" style="stop-color:#FBB03B"></stop>
&#x9;</linearGradient>
&#x9;<path style="fill:url(#SVGID_00000068662086445262588880000009151403435024432809_);" d="M329.09,184.6&#xA;&#x9;&#x9;c0-10.09,8.18-18.26,18.26-18.26c2.09,0,4.1,0.36,5.97,1c-3.47-2.48-7.72-3.94-12.31-3.94c-11.71,0-21.2,9.49-21.2,21.2&#xA;&#x9;&#x9;c0,11.71,9.49,21.2,21.2,21.2c4.59,0,8.84-1.46,12.31-3.94c-1.87,0.65-3.88,1-5.97,1C337.26,202.86,329.09,194.68,329.09,184.6z"></path>
&#x9;
&#x9;&#x9;<linearGradient id="SVGID_00000083790179657596928370000000120556493072619454_" gradientUnits="userSpaceOnUse" x1="304.6357" y1="162.6713" x2="304.6357" y2="203.6014">
&#x9;&#x9;<stop offset="0" style="stop-color:#F15A24"></stop>
&#x9;&#x9;<stop offset="1" style="stop-color:#FBB03B"></stop>
&#x9;</linearGradient>
&#x9;<path style="fill:url(#SVGID_00000083790179657596928370000000120556493072619454_);" d="M294.04,184.6&#xA;&#x9;&#x9;c0,11.71,9.49,21.2,21.2,21.2v-42.4C303.53,163.4,294.04,172.89,294.04,184.6z"></path>
&#x9;
&#x9;&#x9;<linearGradient id="SVGID_00000101092869589712742700000013018649720563891866_" gradientUnits="userSpaceOnUse" x1="268.2629" y1="162.6713" x2="268.2629" y2="203.6014">
&#x9;&#x9;<stop offset="0" style="stop-color:#F15A24"></stop>
&#x9;&#x9;<stop offset="1" style="stop-color:#FBB03B"></stop>
&#x9;</linearGradient>
&#x9;<path style="fill:url(#SVGID_00000101092869589712742700000013018649720563891866_);" d="M268.26,163.4&#xA;&#x9;&#x9;c-11.71,0-21.2,9.49-21.2,21.2c0,11.71,9.49,21.2,21.2,21.2c11.71,0,21.2-9.49,21.2-21.2C289.46,172.89,279.97,163.4,268.26,163.4z&#xA;&#x9;&#x9; M271.38,185.9c0,1.3-1.05,2.35-2.35,2.35c-1.3,0-2.35-1.05-2.35-2.35v-4.92c0-1.3,1.05-2.35,2.35-2.35c1.3,0,2.35,1.05,2.35,2.35&#xA;&#x9;&#x9;V185.9z M281.59,185.9c0,1.3-1.05,2.35-2.35,2.35c-1.3,0-2.35-1.05-2.35-2.35v-4.92c0-1.3,1.05-2.35,2.35-2.35&#xA;&#x9;&#x9;c1.3,0,2.35,1.05,2.35,2.35V185.9z"></path>
</g>
<g>
&#x9;<path class="st10" d="M365.94,182.27h-3.37V165.9h3.12l5.47,8.52l5.45-8.52h3.14v16.37h-3.39v-10.03l-3.94,5.91h-2.55l-3.94-5.85&#xA;&#x9;&#x9;V182.27z"></path>
&#x9;<path class="st10" d="M422.7,182.27h-3.32V165.9h3.08l7.15,10.1v-10.1h3.34v16.37h-2.9l-7.35-10.08V182.27z"></path>
&#x9;<path class="st10" d="M445.38,173.76c0.89,0.25,1.59,0.69,2.09,1.32c0.51,0.63,0.76,1.47,0.76,2.51c0,1.46-0.49,2.61-1.48,3.43&#xA;&#x9;&#x9;c-0.99,0.83-2.38,1.24-4.18,1.24h-7.33V165.9h6.89c1.68,0,2.99,0.38,3.92,1.14s1.4,1.86,1.4,3.29c0,0.83-0.19,1.52-0.55,2.08&#xA;&#x9;&#x9;c-0.37,0.56-0.87,0.97-1.51,1.22l-0.21,0.07L445.38,173.76z M438.72,169.07v3.28h2.99c0.68,0,1.21-0.15,1.58-0.44&#xA;&#x9;&#x9;c0.38-0.3,0.56-0.72,0.56-1.28c0-0.52-0.19-0.9-0.56-1.16c-0.38-0.26-0.9-0.39-1.58-0.39H438.72z M442.19,179.1&#xA;&#x9;&#x9;c0.74,0,1.33-0.16,1.78-0.47c0.45-0.31,0.67-0.77,0.67-1.37c0-0.56-0.23-0.99-0.69-1.3c-0.46-0.3-1.05-0.45-1.77-0.45h-3.48v3.59&#xA;&#x9;&#x9;H442.19z"></path>
&#x9;<path class="st10" d="M476.09,182.27h-3.48v-13.11h-4.65v-3.26h12.78v3.26h-4.65V182.27z"></path>
&#x9;<path class="st10" d="M390.23,165.9c-4.52,0-8.18,3.66-8.18,8.18c0,4.52,3.66,8.18,8.18,8.18c4.52,0,8.18-3.66,8.18-8.18&#xA;&#x9;&#x9;C398.41,169.56,394.75,165.9,390.23,165.9z M390.23,178.99c-2.71,0-4.91-2.2-4.91-4.91c0-2.71,2.2-4.91,4.91-4.91&#xA;&#x9;&#x9;c2.71,0,4.91,2.2,4.91,4.91C395.13,176.79,392.94,178.99,390.23,178.99z"></path>
&#x9;<path class="st10" d="M408.91,165.9c-4.52,0-8.18,3.66-8.18,8.18c0,4.52,3.66,8.18,8.18,8.18s8.18-3.66,8.18-8.18&#xA;&#x9;&#x9;C417.09,169.56,413.43,165.9,408.91,165.9z M408.91,178.99c-2.71,0-4.91-2.2-4.91-4.91c0-2.71,2.2-4.91,4.91-4.91&#xA;&#x9;&#x9;s4.91,2.2,4.91,4.91C413.81,176.79,411.62,178.99,408.91,178.99z"></path>
&#x9;<path class="st10" d="M458.67,165.97c-4.5,0-8.15,3.65-8.15,8.15c0,4.5,3.65,8.15,8.15,8.15c4.5,0,8.15-3.65,8.15-8.15&#xA;&#x9;&#x9;C466.82,169.62,463.17,165.97,458.67,165.97z M458.67,179.01c-2.7,0-4.89-2.19-4.89-4.89s2.19-4.89,4.89-4.89&#xA;&#x9;&#x9;c2.7,0,4.89,2.19,4.89,4.89S461.37,179.01,458.67,179.01z"></path>
&#x9;<g>
&#x9;&#x9;<path class="st10" d="M364.97,202.23c-1.08-0.65-1.88-1.52-2.4-2.62l2.63-1.75c0.8,1.53,2,2.29,3.61,2.29&#xA;&#x9;&#x9;&#x9;c0.83,0,1.49-0.15,1.98-0.44c0.49-0.29,0.74-0.69,0.74-1.18c0-0.34-0.09-0.63-0.28-0.86c-0.18-0.23-0.5-0.44-0.94-0.63&#xA;&#x9;&#x9;&#x9;c-0.44-0.19-1.08-0.4-1.92-0.63c-1.07-0.3-1.96-0.6-2.67-0.91c-0.71-0.3-1.34-0.78-1.87-1.41c-0.53-0.63-0.8-1.46-0.8-2.49&#xA;&#x9;&#x9;&#x9;c0-0.91,0.26-1.73,0.78-2.46c0.52-0.73,1.24-1.29,2.15-1.7c0.91-0.41,1.93-0.61,3.06-0.61c1.39,0,2.59,0.31,3.58,0.94&#xA;&#x9;&#x9;&#x9;s1.73,1.43,2.23,2.41l-2.54,1.71c-0.37-0.64-0.84-1.14-1.42-1.5c-0.58-0.36-1.21-0.53-1.89-0.53c-0.7,0-1.29,0.16-1.77,0.48&#xA;&#x9;&#x9;&#x9;c-0.49,0.32-0.73,0.72-0.73,1.18c0,0.34,0.1,0.62,0.3,0.84c0.2,0.22,0.52,0.42,0.95,0.6c0.43,0.18,1.07,0.38,1.91,0.61&#xA;&#x9;&#x9;&#x9;c1.05,0.27,1.94,0.56,2.65,0.85c0.71,0.3,1.34,0.77,1.87,1.4c0.53,0.63,0.8,1.47,0.8,2.51c0,0.97-0.26,1.82-0.78,2.55&#xA;&#x9;&#x9;&#x9;c-0.52,0.73-1.25,1.3-2.18,1.7c-0.93,0.4-2,0.6-3.22,0.6C367.32,203.2,366.05,202.88,364.97,202.23z"></path>
&#x9;&#x9;<path class="st10" d="M383.71,186.86c1.89,0,3.36,0.49,4.42,1.47c1.06,0.98,1.59,2.35,1.59,4.1c0,1.75-0.51,3.12-1.54,4.1&#xA;&#x9;&#x9;&#x9;c-1.02,0.98-2.45,1.47-4.28,1.47h-3.18v5.2h-3.47v-16.34H383.71z M383.2,194.84c0.96,0,1.69-0.21,2.21-0.62&#xA;&#x9;&#x9;&#x9;c0.52-0.41,0.77-1.01,0.77-1.79c0-0.77-0.26-1.36-0.77-1.78c-0.52-0.42-1.25-0.63-2.21-0.63h-2.48v4.82H383.2z"></path>
&#x9;&#x9;<path class="st10" d="M405.6,203.2h-3.69l-1.35-3.8h-5.77l-1.35,3.8h-3.72l6.15-16.34h3.58L405.6,203.2z M395.96,196.12h3.43&#xA;&#x9;&#x9;&#x9;l-1.71-4.84L395.96,196.12z"></path>
&#x9;&#x9;<path class="st10" d="M425.11,196.48v3.56h7.7v3.16h-11.17v-16.34h11.17v3.16h-7.7v3.27h7.7v3.18H425.11z"></path>
&#x9;&#x9;<g>
&#x9;&#x9;&#x9;<path class="st10" d="M413.69,199.97c-2.68,0-4.85-2.17-4.85-4.85c0-2.68,2.17-4.85,4.85-4.85c1.33,0,2.53,0.54,3.4,1.4l2.27-2.3&#xA;&#x9;&#x9;&#x9;&#x9;c-1.46-1.44-3.46-2.33-5.67-2.33c-4.46,0-8.08,3.62-8.08,8.08c0,4.46,3.62,8.08,8.08,8.08c2.21,0,4.21-0.89,5.67-2.33l-2.27-2.3&#xA;&#x9;&#x9;&#x9;&#x9;C416.21,199.43,415.01,199.97,413.69,199.97z"></path>
&#x9;&#x9;</g>
&#x9;</g>
</g>
</svg>